<svg xmlns="http://www.w3.org/2000/svg" viewBox="0 0 250 250" width="250" height="250" preserveAspectRatio="xMidYMid meet" style="width: 100%; height: 100%; transform: translate3d(0px, 0px, 0px);"><defs><clipPath id="__lottie_element_2"><rect width="250" height="250" x="0" y="0"></rect></clipPath></defs><g clip-path="url(#__lottie_element_2)"><g transform="matrix(1.4504387378692627,0,0,1.4504387378692627,125,125)" opacity="0.28501785943650587" style="display: block;"><g opacity="1" transform="matrix(1,0,0,1,0,0)"><path fill="rgb(35,179,58)" fill-opacity="1" d=" M0,-71.5 C39.46084976196289,-71.5 71.5,-39.46084976196289 71.5,0 C71.5,39.46084976196289 39.46084976196289,71.5 0,71.5 C-39.46084976196289,71.5 -71.5,39.46084976196289 -71.5,0 C-71.5,-39.46084976196289 -39.46084976196289,-71.5 0,-71.5z"></path></g></g><g transform="matrix(1,0,0,1,125,125)" opacity="1" style="display: block;"><path fill="rgb(35,179,58)" fill-opacity="1" d=" M0.5659999847412109,-66.79199981689453 C37.766998291015625,-66.79199981689453 67.92500305175781,-36.6349983215332 67.92500305175781,0.5659999847412109 C67.92500305175781,37.766998291015625 39.768001556396484,67.92500305175781 2.566999912261963,67.92500305175781 C-11.180999755859375,67.92500305175781 -24.12299919128418,65.65799713134766 -34.779998779296875,58.5880012512207 C-34.779998779296875,58.5880012512207 -64.125,65.25700378417969 -64.125,65.25700378417969 C-64.125,65.25700378417969 -56.12200164794922,37.24599838256836 -56.12200164794922,37.24599838256836 C-63.7239990234375,26.339000701904297 -66.79199981689453,14.869000434875488 -66.79199981689453,0.5659999847412109 C-66.79199981689453,-36.6349983215332 -36.6349983215332,-66.79199981689453 0.5659999847412109,-66.79199981689453z"></path><path stroke-linecap="butt" stroke-linejoin="miter" fill-opacity="0" stroke-miterlimit="4" stroke="rgb(255,255,255)" stroke-opacity="1" stroke-width="13" d=" M0.5659999847412109,-66.79199981689453 C37.766998291015625,-66.79199981689453 67.92500305175781,-36.6349983215332 67.92500305175781,0.5659999847412109 C67.92500305175781,37.766998291015625 39.768001556396484,67.92500305175781 2.566999912261963,67.92500305175781 C-11.180999755859375,67.92500305175781 -24.12299919128418,65.65799713134766 -34.779998779296875,58.5880012512207 C-34.779998779296875,58.5880012512207 -64.125,65.25700378417969 -64.125,65.25700378417969 C-64.125,65.25700378417969 -56.12200164794922,37.24599838256836 -56.12200164794922,37.24599838256836 C-63.7239990234375,26.339000701904297 -66.79199981689453,14.869000434875488 -66.79199981689453,0.5659999847412109 C-66.79199981689453,-36.6349983215332 -36.6349983215332,-66.79199981689453 0.5659999847412109,-66.79199981689453z"></path></g><g transform="matrix(0.967998743057251,0.25095513463020325,-0.25095513463020325,0.967998743057251,125,125)" opacity="1" style="display: block;"><path fill="rgb(255,255,255)" fill-opacity="1" d=" M-38.20800018310547,-19.18199920654297 C-38.20800018310547,-12.788000106811523 -37.96699905395508,-10.413000106811523 -34.9900016784668,-4.460999965667725 C-32.630001068115234,0.25699999928474426 -32.055999755859375,0.4519999921321869 -29.48699951171875,4.373000144958496 C-29.48699951171875,4.373000144958496 -26.493999481201172,8.54699993133545 -26.493999481201172,8.54699993133545 C-20.878999710083008,15.381999969482422 -22.582000732421875,13.543000221252441 -16.30900001525879,19.86400032043457 C-8.189000129699707,28.04599952697754 0.06199999898672104,31.933000564575195 10.722000122070312,35.797000885009766 C19.652000427246094,39.034000396728516 27.680999755859375,40.45199966430664 35.854000091552734,34.369998931884766 C39.72600173950195,31.488000869750977 41.71699905395508,28.687999725341797 42.20899963378906,23.51099967956543 C42.354000091552734,21.98699951171875 42.5,21.038000106811523 42.3650016784668,20.176000595092773 C41.957000732421875,17.573999404907227 38.314998626708984,16.930999755859375 34.5989990234375,15.048999786376953 C30.323999404907227,12.883999824523926 23.003999710083008,8.164999961853027 20.558000564575195,10.755999565124512 C20.558000564575195,10.755999565124512 14.255999565124512,18.7810001373291 14.255999565124512,18.7810001373291 C13.17300033569336,20.10099983215332 12.039999961853027,20.59000015258789 10.206999778747559,19.832000732421875 C2.618000030517578,16.691999435424805 -5.382999897003174,11.675999641418457 -10.571000099182129,5.48799991607666 C-12.486000061035156,3.2039999961853027 -13.949999809265137,1.1929999589920044 -15.612000465393066,-1.2990000247955322 C-17.88599967956543,-4.709000110626221 -18.812999725341797,-5.514999866485596 -15.595999717712402,-8.678000450134277 C-14.072999954223633,-10.175000190734863 -11.036999702453613,-13.77400016784668 -11.036999702453613,-16.31100082397461 C-11.036999702453613,-17.523000717163086 -11.689000129699707,-18.29400062561035 -12.098999977111816,-19.187000274658203 C-12.517000198364258,-20.097000122070312 -12.817000389099121,-21.007999420166016 -13.225000381469727,-22.010000228881836 C-13.225000381469727,-22.010000228881836 -16.808000564575195,-30.617000579833984 -16.808000564575195,-30.617000579833984 C-19.365999221801758,-37 -19.500999450683594,-35.762001037597656 -23.527999877929688,-36.07899856567383 C-28.381999969482422,-36.46099853515625 -30.114999771118164,-36.02899932861328 -33.86899948120117,-30.982999801635742 C-35.9119987487793,-28.236000061035156 -38.20800018310547,-23.874000549316406 -38.20800018310547,-19.18199920654297"></path></g></g></svg>